<svg width="20" height="19" viewBox="0 0 20 19" fill="none" xmlns="http://www.w3.org/2000/svg">
<path d="M17.881 14.666C15.737 13.931 13.625 13 12.674 12.276C12.017 11.775 11.904 10.658 12.157 9.861C13.275 8.958 14.021 7.384 14.021 5.583C14.021 2.776 12.221 0.5 10 0.5C7.779 0.5 5.979 2.776 5.979 5.583C5.979 7.384 6.725 8.957 7.842 9.86C8.095 10.658 7.983 11.775 7.325 12.276C6.375 13 4.262 13.93 2.118 14.666C-0.0260005 15.402 -4.24494e-07 18.5 -4.24494e-07 18.5H20C20 18.5 20.025 15.401 17.881 14.666Z" fill="#C5C5C5"/>
</svg>
